<svg width="372" height="150" viewBox="0 0 372 150" fill="none" xmlns="http://www.w3.org/2000/svg">
<rect width="372" height="150" fill="#F2E9E4"/>
<rect x="222" width="150" height="150" fill="#22223B"/>
<path d="M221.029 105V34.824H236.533V69.249C236.839 68.297 237.621 67.26 238.879 66.138C240.171 64.982 241.854 63.996 243.928 63.18C246.036 62.33 248.416 61.905 251.068 61.905C255.148 61.905 258.684 62.908 261.676 64.914C264.668 66.92 266.98 69.606 268.612 72.972C270.244 76.304 271.06 80.01 271.06 84.09C271.06 88.17 270.244 91.893 268.612 95.259C266.98 98.591 264.668 101.26 261.676 103.266C258.684 105.238 255.148 106.224 251.068 106.224C248.824 106.224 246.699 105.816 244.693 105C242.721 104.218 241.004 103.215 239.542 101.991C238.114 100.733 237.06 99.475 236.38 98.217V105H221.029ZM255.862 84.09C255.862 82.186 255.437 80.486 254.587 78.99C253.771 77.46 252.632 76.27 251.17 75.42C249.742 74.536 248.127 74.094 246.325 74.094C244.455 74.094 242.772 74.536 241.276 75.42C239.814 76.27 238.658 77.46 237.808 78.99C236.958 80.486 236.533 82.186 236.533 84.09C236.533 85.994 236.958 87.711 237.808 89.241C238.658 90.737 239.814 91.91 241.276 92.76C242.772 93.61 244.455 94.035 246.325 94.035C248.127 94.035 249.742 93.61 251.17 92.76C252.632 91.91 253.771 90.737 254.587 89.241C255.437 87.711 255.862 85.994 255.862 84.09ZM291.419 106.224C286.829 106.224 282.749 105.289 279.179 103.419C275.643 101.515 272.855 98.914 270.815 95.616C268.809 92.284 267.806 88.476 267.806 84.192C267.806 79.908 268.809 76.1 270.815 72.768C272.855 69.402 275.643 66.75 279.179 64.812C282.749 62.874 286.829 61.905 291.419 61.905C296.009 61.905 300.055 62.874 303.557 64.812C307.059 66.75 309.796 69.402 311.768 72.768C313.74 76.1 314.726 79.908 314.726 84.192C314.726 88.476 313.74 92.284 311.768 95.616C309.796 98.914 307.059 101.515 303.557 103.419C300.055 105.289 296.009 106.224 291.419 106.224ZM291.419 93.474C293.187 93.474 294.717 93.083 296.009 92.301C297.301 91.519 298.304 90.414 299.018 88.986C299.732 87.558 300.089 85.943 300.089 84.141C300.089 82.305 299.732 80.673 299.018 79.245C298.304 77.817 297.301 76.695 296.009 75.879C294.717 75.063 293.187 74.655 291.419 74.655C289.651 74.655 288.104 75.063 286.778 75.879C285.486 76.695 284.466 77.817 283.718 79.245C283.004 80.673 282.647 82.305 282.647 84.141C282.647 85.943 283.004 87.558 283.718 88.986C284.466 90.414 285.486 91.519 286.778 92.301C288.104 93.083 289.651 93.474 291.419 93.474ZM344.31 82.509L362.109 105H344.922L335.028 92.097L325.134 105H309.12L326.868 83.733L310.905 63.129H328.245L335.997 73.89L344.106 63.129H359.814L344.31 82.509Z" fill="#F2E9E4"/>
<path d="M28.052 61.905C30.806 61.905 33.322 62.143 35.6 62.619C37.878 63.061 39.782 63.571 41.312 64.149C42.876 64.727 43.879 65.203 44.321 65.577L39.272 74.706C38.626 74.23 37.419 73.618 35.651 72.87C33.917 72.122 31.979 71.748 29.837 71.748C28.205 71.748 26.828 72.003 25.706 72.513C24.584 72.989 24.023 73.754 24.023 74.808C24.023 75.862 24.635 76.712 25.859 77.358C27.117 77.97 28.919 78.514 31.265 78.99C33.305 79.398 35.379 80.044 37.487 80.928C39.595 81.812 41.346 83.121 42.74 84.855C44.168 86.555 44.882 88.833 44.882 91.689C44.882 94.613 44.253 97.027 42.995 98.931C41.737 100.835 40.071 102.314 37.997 103.368C35.923 104.422 33.679 105.153 31.265 105.561C28.851 106.003 26.505 106.224 24.227 106.224C21.031 106.224 18.243 105.935 15.863 105.357C13.517 104.779 11.613 104.116 10.151 103.368C8.689 102.62 7.669 102.025 7.091 101.583L12.089 91.383C12.973 92.131 14.418 92.981 16.424 93.933C18.43 94.851 20.555 95.31 22.799 95.31C24.975 95.31 26.658 94.987 27.848 94.341C29.038 93.695 29.633 92.845 29.633 91.791C29.633 90.941 29.344 90.261 28.766 89.751C28.188 89.241 27.372 88.799 26.318 88.425C25.264 88.051 23.989 87.711 22.493 87.405C21.133 87.133 19.688 86.708 18.158 86.13C16.628 85.552 15.183 84.77 13.823 83.784C12.463 82.764 11.358 81.489 10.508 79.959C9.658 78.429 9.233 76.576 9.233 74.4C9.233 71.612 10.134 69.3 11.936 67.464C13.738 65.628 16.067 64.251 18.923 63.333C21.779 62.381 24.822 61.905 28.052 61.905ZM60.2011 126.216H44.8501V63.129H60.3541V69.249C60.8301 68.297 61.7311 67.26 63.0571 66.138C64.4171 64.982 66.1341 63.996 68.2081 63.18C70.3161 62.33 72.6961 61.905 75.3481 61.905C79.4281 61.905 82.9131 62.908 85.8031 64.914C88.7271 66.92 90.9711 69.606 92.5351 72.972C94.0991 76.304 94.8811 80.01 94.8811 84.09C94.8811 88.17 94.0481 91.893 92.3821 95.259C90.7161 98.591 88.3701 101.26 85.3441 103.266C82.3521 105.238 78.8161 106.224 74.7361 106.224C71.8121 106.224 69.3131 105.714 67.2391 104.694C65.1991 103.64 63.5841 102.484 62.3941 101.226C61.2381 99.934 60.5071 98.931 60.2011 98.217V126.216ZM79.7341 84.09C79.7341 82.186 79.3091 80.486 78.4591 78.99C77.6091 77.46 76.4531 76.27 74.9911 75.42C73.5631 74.536 71.9481 74.094 70.1461 74.094C68.2761 74.094 66.5931 74.536 65.0971 75.42C63.6351 76.27 62.4791 77.46 61.6291 78.99C60.7791 80.486 60.3541 82.186 60.3541 84.09C60.3541 85.994 60.7791 87.711 61.6291 89.241C62.4791 90.737 63.6351 91.91 65.0971 92.76C66.5931 93.61 68.2761 94.035 70.1461 94.035C71.9481 94.035 73.5631 93.61 74.9911 92.76C76.4531 91.91 77.6091 90.737 78.4591 89.241C79.3091 87.711 79.7341 85.994 79.7341 84.09ZM110.07 105H94.5146V34.824H110.07V105ZM112.416 105V63.129H127.92V105H112.416ZM120.372 54.51C117.924 54.51 115.85 53.66 114.15 51.96C112.45 50.226 111.6 48.169 111.6 45.789C111.6 43.409 112.45 41.352 114.15 39.618C115.884 37.85 117.958 36.966 120.372 36.966C121.97 36.966 123.432 37.374 124.758 38.19C126.084 38.972 127.155 40.026 127.971 41.352C128.787 42.678 129.195 44.157 129.195 45.789C129.195 48.169 128.328 50.226 126.594 51.96C124.86 53.66 122.786 54.51 120.372 54.51ZM148.393 106.224C144.347 106.224 140.828 105.238 137.836 103.266C134.844 101.26 132.515 98.591 130.849 95.259C129.217 91.893 128.401 88.17 128.401 84.09C128.401 80.01 129.217 76.304 130.849 72.972C132.515 69.606 134.844 66.92 137.836 64.914C140.828 62.908 144.347 61.905 148.393 61.905C151.079 61.905 153.459 62.33 155.533 63.18C157.607 63.996 159.29 64.982 160.582 66.138C161.874 67.26 162.656 68.297 162.928 69.249V34.824H178.432V105H163.081V98.217C162.435 99.475 161.381 100.733 159.919 101.991C158.457 103.215 156.74 104.218 154.768 105C152.796 105.816 150.671 106.224 148.393 106.224ZM153.136 94.035C155.006 94.035 156.672 93.61 158.134 92.76C159.63 91.91 160.803 90.737 161.653 89.241C162.503 87.711 162.928 85.994 162.928 84.09C162.928 82.186 162.503 80.486 161.653 78.99C160.803 77.46 159.63 76.27 158.134 75.42C156.672 74.536 155.006 74.094 153.136 74.094C151.334 74.094 149.702 74.536 148.24 75.42C146.812 76.27 145.673 77.46 144.823 78.99C144.007 80.486 143.599 82.186 143.599 84.09C143.599 85.994 144.007 87.711 144.823 89.241C145.673 90.737 146.812 91.91 148.24 92.76C149.702 93.61 151.334 94.035 153.136 94.035ZM191.599 87.354C191.701 88.85 192.177 90.176 193.027 91.332C193.877 92.488 195.05 93.406 196.546 94.086C198.076 94.732 199.878 95.055 201.952 95.055C203.924 95.055 205.692 94.851 207.256 94.443C208.854 94.035 210.231 93.525 211.387 92.913C212.577 92.301 213.495 91.672 214.141 91.026L220.159 100.614C219.309 101.532 218.102 102.433 216.538 103.317C215.008 104.167 212.985 104.864 210.469 105.408C207.953 105.952 204.774 106.224 200.932 106.224C196.308 106.224 192.194 105.357 188.59 103.623C184.986 101.889 182.147 99.339 180.073 95.973C177.999 92.607 176.962 88.493 176.962 83.631C176.962 79.551 177.846 75.879 179.614 72.615C181.416 69.317 184.017 66.716 187.417 64.812C190.817 62.874 194.914 61.905 199.708 61.905C204.264 61.905 208.208 62.738 211.54 64.404C214.906 66.07 217.49 68.552 219.292 71.85C221.128 75.114 222.046 79.194 222.046 84.09C222.046 84.362 222.029 84.906 221.995 85.722C221.995 86.538 221.961 87.082 221.893 87.354H191.599ZM207.46 79.245C207.426 78.157 207.137 77.086 206.593 76.032C206.049 74.944 205.233 74.06 204.145 73.38C203.057 72.666 201.663 72.309 199.963 72.309C198.263 72.309 196.818 72.649 195.628 73.329C194.472 73.975 193.588 74.825 192.976 75.879C192.364 76.933 192.024 78.055 191.956 79.245H207.46Z" fill="#22223B"/>
</svg>
